<svg height="512" viewBox="0 0 512 512" width="512" xmlns="http://www.w3.org/2000/svg"><g id="Solid"><path d="m496 256.01a23.874 23.874 0 0 1 -7.03 16.98l-72 71.98a24 24 0 0 1 -33.94-33.94l31.03-31.03h-102.06a8 8 0 0 1 -8-8v-32a8 8 0 0 1 8-8h102.05l-31.02-31.03a24 24 0 1 1 33.94-33.94l72 72.01a23.892 23.892 0 0 1 7.03 16.97z"/><path d="m208 240v32a8 8 0 0 1 -8 8h-102.06l31.03 31.03a24 24 0 1 1 -33.94 33.94l-72-71.99a24 24 0 0 1 0-33.94l72-72.01a24 24 0 0 1 33.94 33.94l-31.02 31.03h102.05a8 8 0 0 1 8 8z"/><path d="m320 80v352a24 24 0 0 1 -48 0v-352a24 24 0 0 1 48 0z"/><path d="m240 80v352a24 24 0 0 1 -48 0v-352a24 24 0 0 1 48 0z"/></g></svg>